<svg width="14" height="14" viewBox="0 0 14 14" fill="none" xmlns="http://www.w3.org/2000/svg">
<rect width="14" height="14" rx="7" fill="#F63232"/>
<path d="M8.5 4.8625V4.75C8.5 3.92125 7.82875 3.25 7 3.25C6.17125 3.25 5.5 3.92125 5.5 4.75V6.625" stroke="#FAFAFA" stroke-width="0.8" stroke-linecap="round" stroke-linejoin="round"/>
<path d="M5.89001 7.82125C6.16376 8.125 6.56126 8.3125 7.00001 8.3125C7.82876 8.3125 8.50001 7.64125 8.50001 6.8125V6.625" stroke="#FAFAFA" stroke-width="0.8" stroke-linecap="round" stroke-linejoin="round"/>
<path d="M5.04251 8.85627C5.55626 9.33252 6.24251 9.62502 7.00001 9.62502C8.58251 9.62502 9.86876 8.33877 9.86876 6.75627V6.11877" stroke="#FAFAFA" stroke-width="0.8" stroke-linecap="round" stroke-linejoin="round"/>
<path d="M4.13126 6.11877V6.75627C4.13126 7.15377 4.21001 7.52877 4.35626 7.87377" stroke="#FAFAFA" stroke-width="0.8" stroke-linecap="round" stroke-linejoin="round"/>
<path d="M10.0263 3.56494L3.97375 9.62119" stroke="#FAFAFA" stroke-width="0.8" stroke-linecap="round" stroke-linejoin="round"/>
<path d="M6.625 3.625V4.75" stroke="#FAFAFA" stroke-width="0.8" stroke-linecap="round" stroke-linejoin="round"/>
<path d="M7 9.625V10.75" stroke="#FAFAFA" stroke-width="0.8" stroke-linecap="round" stroke-linejoin="round"/>
</svg>
