<svg width="46" height="47" viewBox="0 0 46 47" fill="none" xmlns="http://www.w3.org/2000/svg">
<path d="M42.1666 23.5C42.1666 26.0108 41.6874 28.4258 40.7866 30.6299C39.5408 29.7674 38.0266 29.25 36.4166 29.25C34.6149 29.25 32.9474 29.8825 31.6249 30.9367C29.8616 32.3358 28.7499 34.5016 28.7499 36.9166C28.7499 38.3541 29.1524 39.715 29.8616 40.865C29.9382 40.9991 30.0341 41.1334 30.1491 41.2675C27.9449 42.1684 25.5299 42.6666 22.9999 42.6666C12.4199 42.6666 3.83325 34.08 3.83325 23.5C3.83325 12.92 12.4199 4.33331 22.9999 4.33331C33.5799 4.33331 42.1666 12.92 42.1666 23.5Z" stroke="#FAFAFA" stroke-width="2" stroke-linecap="round" stroke-linejoin="round"/>
<path d="M17.9783 23.5001V20.8359C17.9783 17.5392 20.3166 16.1784 23.1724 17.8267L25.4724 19.1492L27.7724 20.4717C30.6282 22.12 30.6282 24.8225 27.7724 26.4709L25.4724 27.7934L23.1724 29.1159C20.3166 30.7642 17.9783 29.4225 17.9783 26.1067V23.5001Z" stroke="#FAFAFA" stroke-width="2" stroke-miterlimit="10" stroke-linecap="round" stroke-linejoin="round"/>
<path d="M44.0833 36.9167C44.0833 38.3542 43.6809 39.715 42.9717 40.865C42.5692 41.555 42.0517 42.1683 41.4575 42.6667C40.1158 43.8742 38.3525 44.5833 36.4167 44.5833C33.6183 44.5833 31.1841 43.0883 29.8616 40.865C29.1525 39.715 28.75 38.3542 28.75 36.9167C28.75 34.5017 29.8617 32.3358 31.625 30.9367C32.9475 29.8825 34.615 29.25 36.4167 29.25C40.6525 29.25 44.0833 32.6808 44.0833 36.9167Z" stroke="#FAFAFA" stroke-width="2" stroke-miterlimit="10" stroke-linecap="round" stroke-linejoin="round"/>
<path d="M39.2724 36.8782H33.5608" stroke="#FAFAFA" stroke-width="2" stroke-miterlimit="10" stroke-linecap="round" stroke-linejoin="round"/>
<path d="M36.4166 34.08V39.8108" stroke="#FAFAFA" stroke-width="2" stroke-miterlimit="10" stroke-linecap="round" stroke-linejoin="round"/>
</svg>
