<svg width="14" height="14" viewBox="0 0 14 14" fill="none" xmlns="http://www.w3.org/2000/svg">
<rect width="14" height="14" rx="7" fill="#6032F6"/>
<path d="M3.24997 6.24998V7.74998C3.24997 8.49998 3.62497 8.87498 4.37497 8.87498H4.91122C5.04997 8.87498 5.18872 8.91623 5.30872 8.98748L6.40372 9.67373C7.34872 10.2662 8.12497 9.83498 8.12497 8.72123V5.27873C8.12497 4.16123 7.34872 3.73373 6.40372 4.32623L5.30872 5.01248C5.18872 5.08373 5.04997 5.12498 4.91122 5.12498H4.37497C3.62497 5.12498 3.24997 5.49998 3.24997 6.24998Z" stroke="#FAFAFA" stroke-width="0.75"/>
<path d="M9.24997 5.5C9.91747 6.38875 9.91747 7.61125 9.24997 8.5" stroke="#FAFAFA" stroke-width="0.75" stroke-linecap="round" stroke-linejoin="round"/>
<path d="M9.93625 4.5625C11.02 6.00625 11.02 7.99375 9.93625 9.4375" stroke="#FAFAFA" stroke-width="0.75" stroke-linecap="round" stroke-linejoin="round"/>
</svg>
